<?xml version="1.0" encoding="utf-8"?>
<svg viewBox="0 0 600 600" width="600px" height="600px" xmlns="http://www.w3.org/2000/svg">
  <rect id="backgroundrect" width="844.84" height="21.279" x="-99.012" y="825.953" fill="none" stroke="none" style="visibility: hidden;" class=""/>
  <rect x="-1.812" y="-6.171" width="602.041" height="611.905" style="fill: rgb(216, 216, 216); visibility: hidden;"/>
  <g>
    <g class="currentLayer" style="" transform="matrix(0.989398, 0, 0, 1.016109, 2.651377, -35.17812)">
      <title>Layer 1</title>
      <path d="M39.39847946166992,41.06624627113342 c-16.511600494384766,2.4095804691314697 -31.54012107849121,17.268659591674805 -35.09950637817383,34.53731918334961 c-0.6921029686927795,3.413572311401367 -0.8898466229438782,57.62913131713867 -0.7909747958183289,165.65866088867188 c0.2966155707836151,181.6221160888672 -0.39548739790916443,165.45787048339844 8.502979278564453,177.40536499023438 c5.635695934295654,7.630338191986084 13.347701072692871,13.252692222595215 21.751806259155273,15.863070487976074 c5.437951564788818,1.7067861557006836 9.195082664489746,2.007983922958374 25.50893783569336,2.007983922958374 l19.08226776123047,0 l0.2966155707836151,59.93831253051758 l0.2966155707836151,60.03871536254883 l2.274052619934082,3.7147698402404785 c4.548105239868164,7.429539680480957 12.062365531921387,10.74271297454834 20.26873016357422,8.835127830505371 c5.042464733123779,-1.2047902345657349 6.228926658630371,-2.3091812133789062 69.90239715576172,-66.86585998535156 l64.76106262207031,-65.66106414794922 l14.336418151855469,0 c12.457853317260742,0 14.731905937194824,-0.3011975586414337 18.587907791137695,-2.1083829402923584 c12.260109901428223,-6.023951053619385 13.446571350097656,-24.09580421447754 2.0763089656829834,-31.72614097595215 l-4.152617931365967,-2.8111770153045654 l-20.36760139465332,-0.3011975586414337 c-13.446571350097656,-0.2007983773946762 -21.751806259155273,0.1003991886973381 -24.32247543334961,0.8031935095787048 c-3.361642837524414,1.003991961479187 -12.260109901428223,9.537922859191895 -55.46710968017578,53.4123649597168 l-51.61111068725586,52.207576751708984 l-0.09887184947729111,-46.986820220947266 c-0.19774369895458221,-52.60917282104492 0.09887184947729111,-49.89839553833008 -7.316516876220703,-56.02274703979492 l-3.85600209236145,-3.112374782562256 l-30.155914306640625,-0.5019959807395935 l-30.155914306640625,-0.5019959807395935 l-1.8785651922225952,-2.4095804691314697 c-1.8785651922225952,-2.3091812133789062 -1.8785651922225952,-5.823152542114258 -1.680821418762207,-158.7311248779297 c0.2966155707836151,-130.71974182128906 0.49435925483703613,-156.6227264404297 1.680821418762207,-157.92791748046875 c1.1864622831344604,-1.6063870191574097 20.466474533081055,-1.7067861557006836 258.1543884277344,-1.7067861557006836 c237.5890655517578,0 256.96795654296875,0.1003991886973381 258.1543884277344,1.7067861557006836 c1.0875904560089111,1.3051894903182983 1.483077883720398,13.3530912399292 1.8785651922225952,65.46026611328125 c0.39548739790916443,45.88242721557617 0.7909747958183289,64.4562759399414 1.680821418762207,65.86186981201172 c1.384205937385559,2.6103789806365967 6.130054950714111,6.927543640136719 8.898467063903809,8.433531761169434 c1.1864622831344604,0.6023951172828674 4.745849132537842,1.1043909788131714 8.008620262145996,1.1043909788131714 c4.943592548370361,0 6.426670074462891,-0.5019959807395935 9.98605728149414,-3.112374782562256 c8.305235862731934,-6.023951053619385 8.008620262145996,-3.0119755268096924 8.008620262145996,-74.69699096679688 c0,-67.76945495605469 -0.09887184947729111,-69.17504119873047 -5.042464733123779,-79.01416015625 c-5.635695934295654,-11.244708061218262 -19.378883361816406,-21.083829879760742 -31.83673667907715,-22.99141502380371 c-7.909748077392578,-1.1043909788131714 -512.2550659179688,-1.003991961479187 -520.263671875,0.2007983773946762 z" id="svg_2" class="" style="fill: rgb(23, 107, 239);"/>
    </g>
    <g transform="matrix(0.092193, 0, 0, -0.092193, 41.993, 269.456635)" id="g3039" style="">
      <path d="M 1507.186 578.163 C 1537.853 560.83 1557.686 534.996 1566.686 500.663 C 1575.686 466.33 1571.52 433.83 1554.186 403.163 L 1490.186 293.163 C 1472.853 262.496 1447.02 242.663 1412.686 233.663 C 1378.353 224.663 1345.853 228.83 1315.186 246.163 L 1049.186 399.163 L 1049.186 92.163 C 1049.186 57.496 1036.52 27.496 1011.186 2.163 C 985.853 -23.17 955.853 -35.837 921.186 -35.837 L 793.186 -35.837 C 758.52 -35.837 728.52 -23.17 703.186 2.163 C 677.853 27.496 665.186 57.496 665.186 92.163 L 665.186 399.163 L 399.186 246.163 C 368.52 228.83 336.02 224.663 301.686 233.663 C 267.353 242.663 241.52 262.496 224.186 293.163 L 160.186 403.163 C 142.853 433.83 138.686 466.33 147.686 500.663 C 156.686 534.996 176.52 560.83 207.186 578.163 L 473.186 732.163 L 207.186 886.163 C 176.52 903.496 156.686 929.33 147.686 963.663 C 138.686 997.996 142.853 1030.496 160.186 1061.163 L 224.186 1171.163 C 241.52 1201.83 267.353 1221.663 301.686 1230.663 C 336.02 1239.663 368.52 1235.496 399.186 1218.163 L 665.186 1065.163 L 665.186 1372.163 C 665.186 1406.83 677.853 1436.83 703.186 1462.163 C 728.52 1487.496 758.52 1500.163 793.186 1500.163 L 921.186 1500.163 C 955.853 1500.163 985.853 1487.496 1011.186 1462.163 C 1036.52 1436.83 1049.186 1406.83 1049.186 1372.163 L 1049.186 1065.163 L 1315.186 1218.163 C 1345.853 1235.496 1378.353 1239.663 1412.686 1230.663 C 1447.02 1221.663 1472.853 1201.83 1490.186 1171.163 L 1554.186 1061.163 C 1571.52 1030.496 1575.686 997.996 1566.686 963.663 C 1557.686 929.33 1537.853 903.496 1507.186 886.163 L 1241.186 732.163 Z" id="path3041" style="fill: rgb(23, 107, 239);"/>
    </g>
    <g transform="matrix(0.092193, 0, 0, -0.092193, 207.545288, 256.144989)" id="g-1" style="">
      <path d="m 1482,486 q 46,-26 59.5,-77.5 Q 1555,357 1529,311 L 1465,201 Q 1439,155 1387.5,141.5 1336,128 1290,154 L 1024,307 V 0 q 0,-52 -38,-90 -38,-38 -90,-38 H 768 q -52,0 -90,38 -38,38 -38,90 V 307 L 374,154 Q 328,128 276.5,141.5 225,155 199,201 L 135,311 Q 109,357 122.5,408.5 136,460 182,486 L 448,640 182,794 Q 136,820 122.5,871.5 109,923 135,969 l 64,110 q 26,46 77.5,59.5 Q 328,1152 374,1126 L 640,973 v 307 q 0,52 38,90 38,38 90,38 h 128 q 52,0 90,-38 38,-38 38,-90 V 973 l 266,153 q 46,26 97.5,12.5 51.5,-13.5 77.5,-59.5 l 64,-110 q 26,-46 12.5,-97.5 Q 1528,820 1482,794 L 1216,640 z" id="path-1" style="fill: rgb(23, 107, 239);"/>
    </g>
    <g transform="matrix(0.092193, 0, 0, -0.092193, 772.891785, 196.985611)" id="g-2" style="">
      <path d="M -2765.433 -198.88 C -2734.766 -216.214 -2714.933 -242.047 -2705.933 -276.38 C -2696.933 -310.714 -2701.099 -343.214 -2718.433 -373.88 L -2782.433 -483.88 C -2799.766 -514.547 -2825.599 -534.38 -2859.933 -543.38 C -2894.266 -552.38 -2926.766 -548.214 -2957.433 -530.88 L -3223.433 -377.88 L -3223.433 -684.88 C -3223.433 -719.547 -3236.099 -749.547 -3261.433 -774.88 C -3286.766 -800.214 -3316.766 -812.88 -3351.433 -812.88 L -3479.433 -812.88 C -3514.099 -812.88 -3544.099 -800.214 -3569.433 -774.88 C -3594.766 -749.547 -3607.433 -719.547 -3607.433 -684.88 L -3607.433 -377.88 L -3873.433 -530.88 C -3904.099 -548.214 -3936.599 -552.38 -3970.933 -543.38 C -4005.266 -534.38 -4031.099 -514.547 -4048.433 -483.88 L -4112.433 -373.88 C -4129.766 -343.214 -4133.933 -310.714 -4124.933 -276.38 C -4115.933 -242.047 -4096.099 -216.214 -4065.433 -198.88 L -3799.433 -44.88 L -4065.433 109.12 C -4096.099 126.453 -4115.933 152.286 -4124.933 186.62 C -4133.933 220.953 -4129.766 253.453 -4112.433 284.12 L -4048.433 394.12 C -4031.099 424.786 -4005.266 444.62 -3970.933 453.62 C -3936.599 462.62 -3904.099 458.453 -3873.433 441.12 L -3607.433 288.12 L -3607.433 595.12 C -3607.433 629.786 -3594.766 659.786 -3569.433 685.12 C -3544.099 710.453 -3514.099 723.12 -3479.433 723.12 L -3351.433 723.12 C -3316.766 723.12 -3286.766 710.453 -3261.433 685.12 C -3236.099 659.786 -3223.433 629.786 -3223.433 595.12 L -3223.433 288.12 L -2957.433 441.12 C -2926.766 458.453 -2894.266 462.62 -2859.933 453.62 C -2825.599 444.62 -2799.766 424.786 -2782.433 394.12 L -2718.433 284.12 C -2701.099 253.453 -2696.933 220.953 -2705.933 186.62 C -2714.933 152.286 -2734.766 126.453 -2765.433 109.12 L -3031.433 -44.88 Z" id="path-2" style="fill: rgb(23, 107, 239);"/>
    </g>
  </g>
  <rect id="rect-1" width="1280" height="800" x="124.384" y="-89.2" fill="none" stroke="none" style="" class="selected"/>
  <g class="currentLayer" style="" transform="matrix(1, 0, 0, 1, 124.384315, -89.200981)">
    <title>Layer 1</title>
    <path d="M 293.58 369.812 C 256.441 378.094 225.424 406.068 213.601 441.918 C 210.957 449.93 210.403 455.36 209.845 476.68 L 209.29 501.802 L 202.613 504.11 C 198.996 505.334 194.406 508.048 192.319 510.085 C 184.391 517.825 184.391 516.74 184.808 596.042 L 185.227 668.827 L 188.982 674.396 C 190.929 677.383 194.963 680.913 198.022 682.406 C 203.03 684.85 208.316 684.987 313.888 685.393 C 390.944 685.665 425.996 685.393 429.751 684.307 C 436.289 682.406 444.496 675.482 446.86 669.777 C 448.389 666.247 448.806 650.903 448.806 593.87 C 448.806 513.888 449.225 517.282 438.653 508.455 C 435.593 505.876 431.699 503.703 430.169 503.703 C 424.327 503.703 424.048 502.48 423.492 476.544 C 422.797 453.731 422.518 450.473 419.041 440.559 C 407.218 406.747 379.261 380.403 345.183 371.169 C 333.915 368.182 304.707 367.367 293.58 369.812 Z M 332.248 404.71 C 348.939 408.241 367.715 420.868 376.202 434.312 C 378.565 437.845 382.041 445.177 383.99 450.608 C 387.329 459.57 387.606 462.15 387.606 481.434 L 387.606 502.344 L 316.669 502.344 L 245.731 502.344 L 245.731 482.247 C 245.731 460.385 247.124 453.323 254.078 439.881 C 267.847 413.129 300.951 398.327 332.248 404.71 Z" id="svg_3" class="" style="fill: rgb(247, 181, 41);"/>
  </g>
</svg>